# xmcd
#
# Track frame offsets: 
#        150
#        10958
#        22736
#        31939
#        42670
#        51015
#        62884
#        74119
#        83295
#        92645
#        101842
#        112725
#        124344
#        134962
#        142804
#        152168
#        162274
#        172565
#        182656
#        195646
#        206402
#        216155
#        225654
#        234251
#        244174
#
# Disc length: 3391 seconds
#
# Revision: 0
# Processed by: cddbd v1.5.2PL0 Copyright (c) Steve Scherf et al.
# Submitted via: ExactAudioCopy v1.3
#
DISCID=500d3d19
DTITLE=Faron Young - Faron Young_Country Hits and Favorites_CD2
DYEAR=2015
DGENRE=Country
TTITLE0=Hello Walls
TTITLE1=Country Girl
TTITLE2=Backtrack
TTITLE3=Tattletale Tears
TTITLE4=Hey, Good Lookin'
TTITLE5=Sweethearts Or Strangers
TTITLE6=Don't Let The Stars Get In Your Eyes
TTITLE7=You Call Everybody Darlin'
TTITLE8=I'm A Poor Boy
TTITLE9=It's A Great Life
TTITLE10=Just Married
TTITLE11=For The Love Of A Woman Like You
TTITLE12=Almost
TTITLE13=L'll Go On Alone
TTITLE14=I've Got Five Dollars And It's Saturday Night
TTITLE15=The Part Where I Cry
TTITLE16=Let's Pretend We're Lovers Again
TTITLE17=Worried Mind
TTITLE18=Making Believe
TTITLE19=Three Days
TTITLE20=How Can I Forget You
TTITLE21=Shame On You
TTITLE22=There's Not Any Like You Left
TTITLE23=Things To Remember
TTITLE24=Tennessee Waltz
EXTD=
EXTT0=
EXTT1=
EXTT2=
EXTT3=
EXTT4=
EXTT5=
EXTT6=
EXTT7=
EXTT8=
EXTT9=
EXTT10=
EXTT11=
EXTT12=
EXTT13=
EXTT14=
EXTT15=
EXTT16=
EXTT17=
EXTT18=
EXTT19=
EXTT20=
EXTT21=
EXTT22=
EXTT23=
EXTT24=
PLAYORDER=
